<!DOCTYPE svg PUBLIC "-//W3C//DTD SVG 1.1//EN" "http://www.w3.org/Graphics/SVG/1.1/DTD/svg11.dtd">
<!-- Uploaded to: SVG Repo, www.svgrepo.com, Transformed by: SVG Repo Mixer Tools -->
<svg fill="#f8f4f9" width="64px" height="64px" viewBox="0 0 24 24" id="Layer_1" data-name="Layer 1" xmlns="http://www.w3.org/2000/svg" stroke="#f8f4f9">
<g id="SVGRepo_bgCarrier" stroke-width="0"/>
<g id="SVGRepo_tracerCarrier" stroke-linecap="round" stroke-linejoin="round"/>
<g id="SVGRepo_iconCarrier">
<path d="M12,6a.99974.99974,0,0,0-1,1v4.38379L8.56934,12.60693a.99968.99968,0,1,0,.89843,1.78614l2.98145-1.5A.99874.99874,0,0,0,13,12V7A.99974.99974,0,0,0,12,6Zm0-4A10,10,0,1,0,22,12,10.01146,10.01146,0,0,0,12,2Zm0,18a8,8,0,1,1,8-8A8.00917,8.00917,0,0,1,12,20Z"/>
</g>
</svg>