<svg width="21" height="22" viewBox="0 0 21 22" fill="none" xmlns="http://www.w3.org/2000/svg">
<path d="M20.75 20.1895L15.086 14.5255C16.4471 12.8915 17.1259 10.7956 16.981 8.67393C16.8362 6.55223 15.879 4.56804 14.3085 3.13414C12.7379 1.70023 10.6751 0.927006 8.54899 0.975314C6.42291 1.02362 4.39729 1.88975 2.89353 3.39351C1.38977 4.89726 0.523649 6.92288 0.47534 9.04897C0.427031 11.1751 1.20026 13.2379 2.63416 14.8084C4.06807 16.3789 6.05225 17.3362 8.17395 17.481C10.2957 17.6258 12.3915 16.9471 14.0255 15.586L19.6895 21.25L20.75 20.1895ZM2.00003 9.25C2.00003 7.91498 2.39591 6.60993 3.13761 5.4999C3.87931 4.38987 4.93351 3.5247 6.16691 3.01381C7.40031 2.50292 8.75751 2.36925 10.0669 2.6297C11.3763 2.89015 12.579 3.53302 13.523 4.47703C14.467 5.42103 15.1099 6.62377 15.3703 7.93314C15.6308 9.24251 15.4971 10.5997 14.9862 11.8331C14.4753 13.0665 13.6102 14.1207 12.5001 14.8624C11.3901 15.6041 10.085 16 8.75003 16C6.96042 15.998 5.24469 15.2862 3.97925 14.0208C2.71381 12.7553 2.00201 11.0396 2.00003 9.25Z" fill="#FC7753"/>
</svg>
