<svg width="24" height="25" viewBox="0 0 24 25" fill="none" xmlns="http://www.w3.org/2000/svg">
<path d="M0.63301 5.0375C0.441009 4.8455 0.34726 4.60175 0.34726 4.30625C0.34726 4.01075 0.441009 3.767 0.63301 3.575C0.82501 3.383 1.06876 3.28925 1.36426 3.28925H22.7483C23.0438 3.28925 23.2875 3.383 23.4795 3.575C23.6715 3.767 23.7653 4.01075 23.7653 4.30625C23.7653 4.60175 23.6715 4.8455 23.4795 5.0375C23.2875 5.2295 23.0438 5.32325 22.7483 5.32325H1.36426C1.06876 5.32325 0.82501 5.2295 0.63301 5.0375ZM23.4795 11.7222C23.6715 11.9142 23.7653 12.158 23.7653 12.4535C23.7653 12.749 23.6715 12.9927 23.4795 13.1847C23.2875 13.3767 23.0438 13.4705 22.7483 13.4705H1.36426C1.06876 13.4705 0.82501 13.3767 0.63301 13.1847C0.441009 12.9927 0.34726 12.749 0.34726 12.4535C0.34726 12.158 0.441009 11.9142 0.63301 11.7222C0.82501 11.5302 1.06876 11.4365 1.36426 11.4365H22.7483C23.0438 11.4365 23.2875 11.5302 23.4795 11.7222ZM23.4795 19.8642C23.6715 20.0562 23.7653 20.3 23.7653 20.5955C23.7653 20.891 23.6715 21.1347 23.4795 21.3267C23.2875 21.5187 23.0438 21.6125 22.7483 21.6125H1.36426C1.06876 21.6125 0.82501 21.5187 0.63301 21.3267C0.441009 21.1347 0.34726 20.891 0.34726 20.5955C0.34726 20.3 0.441009 20.0562 0.63301 19.8642C0.82501 19.6722 1.06876 19.5785 1.36426 19.5785H22.7483C23.0438 19.5785 23.2875 19.6767 23.4795 19.8642Z" fill="#FC7753"/>
</svg>
